<svg width="10" height="10" viewBox="0 0 10 10" fill="none" xmlns="http://www.w3.org/2000/svg">
<g clip-path="url(#clip0_426_182)">
<path d="M5 0.416626V9.58329M7.08333 2.08329H3.95833C3.57156 2.08329 3.20063 2.23694 2.92714 2.51043C2.65365 2.78392 2.5 3.15485 2.5 3.54163C2.5 3.9284 2.65365 4.29933 2.92714 4.57282C3.20063 4.84631 3.57156 4.99996 3.95833 4.99996H6.04167C6.42844 4.99996 6.79937 5.1536 7.07286 5.4271C7.34635 5.70059 7.5 6.07152 7.5 6.45829C7.5 6.84507 7.34635 7.216 7.07286 7.48949C6.79937 7.76298 6.42844 7.91663 6.04167 7.91663H2.5" stroke="#1E1E1E" stroke-width="1.6" stroke-linecap="round" stroke-linejoin="round"/>
</g>
<defs>
<clipPath id="clip0_426_182">
<rect width="10" height="10" fill="white"/>
</clipPath>
</defs>
</svg>
